<?xml version="1.0" standalone="no"?>
<!DOCTYPE svg PUBLIC "-//W3C//DTD SVG 20010904//EN"
 "http://www.w3.org/TR/2001/REC-SVG-20010904/DTD/svg10.dtd">
<svg version="1.0"
        xmlns="http://www.w3.org/2000/svg" width="100" height="100" viewBox="0 0 1024.000000 1024.000000" preserveAspectRatio="xMidYMid meet">

        <g transform="translate(0.000000,1024.000000) scale(0.100000,-0.100000)" fill="#000000" stroke="none">
                <path d="M2335 7990 c-271 -4 -414 -10 -445 -19 -134 -37 -279 -160 -344 -291
-69 -143 -66 -34 -66 -1890 0 -1851 -3 -1748 65 -1886 67 -137 190 -240 348
-289 l78 -25 1125 0 1124 0 0 -219 c0 -295 -17 -366 -114 -486 -68 -85 -158
-143 -281 -181 -51 -16 -96 -19 -310 -20 -137 -1 -258 -2 -268 -3 -16 -1 -17
-12 -15 -123 l3 -123 1890 0 1890 0 3 128 3 127 -258 0 c-287 0 -340 8 -452
63 -84 41 -199 152 -230 222 -40 90 -49 128 -61 275 -12 134 -11 177 6 298 l6
42 1134 0 1133 0 64 23 c36 13 84 35 109 50 107 62 216 193 260 312 l23 60 3
1715 c2 1267 0 1729 -8 1770 -20 93 -41 149 -80 208 -75 116 -173 193 -305
239 l-80 28 -2775 0 c-1526 1 -2955 -2 -3175 -5z m5972 -284 c72 -33 134 -94
166 -164 l22 -47 0 -1700 0 -1700 -26 -55 c-33 -70 -99 -136 -167 -167 l-52
-25 -3119 2 c-1860 0 -3132 4 -3151 10 -91 26 -176 106 -210 197 -20 53 -20
76 -20 1741 l0 1687 29 60 c46 98 130 164 235 185 23 4 1434 7 3136 6 l3095
-1 62 -29z"/>
                <path d="M3260 7062 c0 -4 16 -55 35 -112 l35 -104 0 -1030 0 -1031 -35 -115
c-19 -63 -35 -118 -35 -122 0 -5 178 -8 396 -8 343 0 395 2 391 15 -4 8 -22
65 -42 128 l-35 113 0 1030 0 1029 35 98 c19 54 35 102 35 107 0 6 -148 10
-390 10 -214 0 -390 -4 -390 -8z"/>
                <path d="M4200 6764 c0 -241 3 -305 13 -301 6 3 92 41 189 86 l177 81 115 0
116 0 0 -911 0 -912 -36 -120 c-20 -66 -38 -126 -41 -133 -4 -12 66 -14 416
-14 232 0 421 3 421 6 0 4 -18 63 -40 131 l-40 126 0 913 0 914 114 0 113 0
164 -76 c90 -42 174 -80 187 -85 l22 -9 0 305 0 305 -945 0 -945 0 0 -306z"/>
                <path d="M6605 6333 c-126 -406 -299 -965 -385 -1243 -86 -278 -160 -515 -164
-527 l-7 -23 156 0 c152 0 156 1 165 23 5 12 114 355 241 762 257 824 476
1525 519 1658 l28 87 -162 0 -161 0 -230 -737z"/>
                <path d="M2747 6376 c-147 -99 -366 -248 -487 -329 l-221 -149 3 -131 3 -132
145 -99 c80 -54 301 -204 493 -332 l347 -235 0 200 0 200 -294 198 c-229 154
-292 201 -283 210 7 7 138 97 292 200 l280 189 3 197 c1 108 -1 196 -5 196 -5
-1 -128 -83 -276 -183z"/>
                <path d="M7220 6363 l1 -198 290 -195 c160 -107 292 -198 295 -201 2 -3 -129
-95 -291 -203 l-295 -197 0 -194 c0 -107 3 -195 6 -195 5 0 224 146 729 486
l250 169 3 130 3 131 -483 325 c-266 179 -489 329 -495 333 -10 6 -13 -35 -13
-191z"/>
        </g>
</svg>
